<?xml version="1.0" standalone="no"?>
<!DOCTYPE svg PUBLIC "-//W3C//DTD SVG 20010904//EN"
 "http://www.w3.org/TR/2001/REC-SVG-20010904/DTD/svg10.dtd">
<svg version="1.0" xmlns="http://www.w3.org/2000/svg"
 width="576.000000pt" height="738.000000pt" viewBox="0 0 576.000000 738.000000"
 preserveAspectRatio="xMidYMid meet">
<metadata>
Created by potrace 1.10, written by Peter Selinger 2001-2011
</metadata>
<g transform="translate(0.000000,738.000000) scale(0.100000,-0.100000)"
fill="#000000" stroke="none">
<path d="M2390 7326 c-19 -8 -54 -15 -76 -15 -23 -1 -58 -8 -77 -16 -20 -8
-51 -15 -69 -15 -18 -1 -44 -7 -58 -15 -14 -8 -38 -15 -55 -15 -16 0 -39 -7
-49 -15 -11 -8 -29 -15 -40 -15 -12 0 -30 -7 -40 -15 -11 -8 -30 -15 -42 -15
-12 0 -35 -6 -51 -14 -15 -8 -44 -21 -63 -29 -122 -51 -347 -170 -450 -238
-225 -147 -357 -255 -522 -425 -238 -247 -448 -572 -582 -899 -7 -16 -19 -46
-28 -65 -20 -47 -38 -98 -47 -135 -4 -17 -13 -40 -19 -52 -7 -12 -12 -35 -12
-50 0 -16 -7 -38 -15 -49 -8 -10 -15 -35 -15 -54 -1 -19 -7 -53 -15 -75 -8
-22 -15 -60 -15 -85 -1 -25 -7 -63 -15 -85 -22 -60 -21 -798 0 -869 8 -27 15
-68 15 -91 0 -24 7 -59 15 -78 8 -20 15 -49 15 -66 0 -16 7 -42 15 -57 8 -16
15 -42 15 -59 0 -16 7 -39 15 -49 8 -11 15 -31 15 -45 0 -14 7 -35 15 -45 8
-11 15 -28 15 -37 0 -10 6 -30 14 -46 21 -40 46 -100 46 -108 0 -15 152 -310
161 -313 5 -2 9 -9 9 -16 0 -15 103 -173 182 -279 108 -146 248 -297 391 -420
133 -115 352 -272 455 -326 15 -8 29 -17 32 -20 4 -5 47 -28 170 -90 67 -34
83 -41 95 -41 7 0 18 -7 25 -15 7 -8 23 -15 35 -15 12 0 28 -7 35 -15 7 -8 25
-15 40 -15 15 0 33 -6 39 -14 6 -8 26 -16 44 -19 18 -2 47 -10 65 -16 83 -29
100 -34 144 -41 26 -5 56 -13 67 -19 11 -6 33 -11 50 -11 16 0 42 -5 58 -11
15 -6 64 -15 108 -19 44 -5 112 -14 150 -19 91 -13 481 -14 565 0 36 5 101 13
145 18 44 5 93 14 108 20 16 6 43 11 62 11 19 0 46 5 62 11 15 7 46 15 68 19
38 8 56 13 135 40 19 7 49 15 67 17 18 3 38 11 44 19 6 8 21 14 33 14 12 0 31
7 42 15 10 8 29 15 40 15 12 0 27 7 34 15 7 8 18 15 25 15 17 0 224 106 320
165 367 222 668 502 895 835 25 36 50 74 56 85 6 11 33 56 59 100 49 82 165
307 165 320 0 4 6 21 14 38 21 49 45 114 86 227 7 19 15 53 19 75 4 22 13 50
19 62 7 12 12 36 12 53 0 17 7 47 15 67 8 19 15 54 15 78 0 23 7 64 15 91 22
71 22 773 0 854 -8 30 -15 74 -15 96 0 23 -7 58 -15 77 -8 20 -15 49 -15 66 0
16 -7 42 -15 57 -8 16 -15 40 -15 54 -1 14 -7 36 -15 50 -8 14 -15 36 -15 50
0 14 -7 34 -15 44 -8 11 -15 29 -15 40 0 12 -7 30 -15 40 -8 11 -15 28 -15 37
0 10 -6 30 -14 46 -8 15 -43 87 -77 158 -64 133 -161 302 -208 365 -14 19 -42
58 -61 86 -167 242 -445 507 -720 686 -180 117 -488 278 -532 278 -8 0 -23 7
-34 15 -10 8 -27 15 -37 15 -11 0 -31 6 -45 14 -36 18 -89 36 -132 45 -19 4
-45 13 -57 19 -12 7 -35 12 -51 12 -16 0 -46 7 -65 15 -20 8 -54 15 -75 15
-21 0 -60 7 -86 16 -38 13 -77 16 -196 12 -82 -2 -153 -7 -157 -12 -13 -12 18
-24 81 -31 34 -4 70 -12 81 -19 23 -14 85 -33 135 -41 64 -10 85 -14 130 -24
49 -11 187 -47 235 -61 17 -5 46 -13 65 -19 19 -5 73 -26 120 -46 47 -21 114
-50 150 -65 108 -45 285 -144 430 -239 74 -49 125 -88 252 -193 137 -114 337
-332 435 -475 81 -117 132 -195 140 -213 3 -8 17 -32 30 -52 34 -56 133 -253
133 -267 0 -6 8 -28 19 -49 26 -52 101 -276 101 -302 0 -12 5 -31 11 -42 19
-36 47 -159 69 -308 9 -59 19 -101 45 -195 13 -47 16 -93 13 -206 -2 -88 -7
-152 -14 -160 -6 -8 -17 -52 -24 -99 -7 -47 -16 -96 -20 -110 -5 -14 -12 -45
-15 -70 -9 -59 -49 -227 -76 -315 -48 -156 -148 -407 -184 -462 -9 -13 -34
-57 -56 -99 -130 -248 -377 -549 -615 -750 -113 -95 -138 -114 -319 -235 -112
-76 -423 -239 -454 -239 -8 0 -32 -8 -55 -19 -67 -30 -165 -62 -251 -80 -302
-66 -430 -82 -680 -85 -115 -1 -237 1 -270 5 -133 16 -171 21 -185 26 -8 4
-23 5 -34 4 -18 -3 -198 36 -301 64 -27 8 -72 19 -100 26 -87 21 -294 108
-410 172 -118 65 -126 70 -225 134 -208 136 -291 203 -473 386 -170 172 -257
280 -384 477 -36 56 -169 311 -190 365 -6 17 -22 55 -36 85 -19 46 -96 278
-127 385 -4 17 -20 95 -35 175 -15 80 -33 165 -42 190 -35 104 -41 409 -8 469
7 14 25 87 39 161 51 272 72 349 159 590 19 52 41 109 50 125 8 17 35 68 58
115 24 47 56 108 71 135 15 28 37 68 49 90 26 47 142 213 213 305 82 104 319
334 451 437 88 69 297 205 370 241 17 8 37 20 45 26 67 51 437 196 574 226
115 25 146 33 206 50 36 10 86 21 111 25 26 3 63 14 82 24 20 10 65 22 100 25
65 7 97 19 84 33 -4 4 -79 8 -165 10 -117 2 -166 -1 -192 -11z"/>
<path d="M2775 7173 c-111 -5 -304 -23 -349 -32 -22 -5 -86 -19 -141 -31 -55
-12 -133 -32 -173 -46 -40 -13 -80 -24 -90 -24 -9 0 -26 -7 -36 -15 -11 -8
-29 -15 -40 -15 -24 0 -389 -179 -491 -241 -80 -49 -241 -167 -269 -198 -11
-12 -23 -21 -27 -21 -17 0 -235 -211 -311 -301 -98 -116 -185 -233 -232 -309
-15 -25 -44 -72 -65 -105 -80 -129 -205 -417 -247 -570 -62 -226 -79 -303 -88
-400 -21 -210 -24 -535 -6 -685 46 -396 221 -850 458 -1186 71 -102 140 -194
161 -215 9 -9 54 -58 101 -108 119 -129 326 -309 421 -366 9 -5 27 -17 40 -26
178 -118 402 -230 609 -304 179 -63 283 -89 470 -115 47 -6 99 -15 115 -19 58
-14 503 -5 630 13 163 23 233 36 280 52 23 8 50 14 60 14 34 0 207 61 375 133
220 93 399 200 590 352 103 82 331 305 397 390 31 39 63 77 72 85 19 19 121
167 121 177 0 4 11 18 24 32 13 15 48 71 76 126 29 55 56 105 60 110 16 22
115 266 152 373 134 392 161 945 66 1367 -11 50 -24 101 -29 114 -6 13 -16 49
-24 80 -16 66 -75 231 -112 316 -43 96 -152 297 -184 337 -16 20 -29 41 -29
45 0 5 -13 24 -28 43 -16 19 -34 45 -41 58 -7 13 -66 85 -130 160 -223 258
-447 447 -716 604 -75 44 -309 154 -367 173 -24 7 -63 21 -88 30 -68 26 -226
71 -310 90 -41 9 -93 20 -115 25 -22 5 -78 12 -125 15 -47 3 -134 10 -195 15
-60 6 -119 9 -130 8 -11 -1 -51 -3 -90 -5z m395 -122 c241 -26 477 -89 710
-188 79 -33 279 -138 334 -174 32 -22 60 -39 63 -39 8 0 207 -154 253 -195
252 -228 415 -420 552 -650 56 -94 142 -263 168 -330 46 -117 66 -174 83 -235
34 -124 45 -168 57 -230 6 -36 16 -87 21 -114 5 -27 15 -131 21 -232 11 -188
2 -425 -23 -559 -28 -160 -57 -290 -71 -325 -6 -14 -14 -38 -18 -55 -10 -35
-28 -87 -46 -130 -7 -16 -27 -66 -45 -110 -34 -82 -47 -107 -114 -230 -56
-101 -210 -323 -250 -360 -6 -5 -29 -32 -50 -60 -89 -113 -319 -324 -465 -427
-155 -109 -448 -268 -494 -268 -8 0 -17 -4 -21 -9 -3 -5 -36 -19 -73 -31 -37
-12 -76 -25 -87 -30 -72 -30 -323 -87 -440 -100 -44 -4 -100 -13 -125 -19 -69
-16 -432 -13 -505 4 -33 8 -81 15 -108 15 -26 0 -73 6 -105 14 -31 8 -91 22
-132 31 -319 73 -621 212 -900 414 -136 98 -349 298 -456 427 -50 62 -194 252
-194 257 0 3 -17 31 -39 63 -38 58 -143 260 -176 339 -9 22 -23 55 -31 73 -8
18 -14 37 -14 43 0 6 -6 25 -13 42 -22 50 -67 211 -86 307 -56 276 -64 634
-21 930 11 76 63 301 79 342 5 13 16 48 26 78 9 30 21 64 25 75 5 11 16 38 25
60 35 85 103 225 133 275 12 19 26 45 31 57 28 63 186 276 295 398 105 116
138 149 277 271 57 50 228 177 301 222 98 61 296 160 423 211 11 5 37 16 58
25 21 9 47 16 58 16 11 0 29 5 40 11 59 31 304 82 504 104 127 15 411 12 565
-4z"/>
<path d="M1537 5572 c-22 -4 -22 -39 1 -77 10 -16 40 -82 66 -145 26 -63 51
-124 56 -135 5 -11 30 -72 55 -135 50 -123 70 -169 92 -212 7 -14 13 -35 13
-46 0 -11 7 -25 15 -32 8 -7 15 -23 15 -35 0 -12 7 -28 15 -35 8 -7 15 -23 15
-35 0 -12 7 -28 15 -35 8 -7 15 -23 15 -35 0 -12 7 -28 15 -35 8 -7 15 -21 15
-30 0 -10 6 -31 14 -47 8 -15 21 -44 29 -63 8 -19 23 -53 33 -75 9 -22 24 -55
31 -72 7 -18 20 -48 29 -68 8 -19 21 -49 29 -67 7 -18 21 -51 30 -73 9 -22 22
-53 30 -70 7 -16 18 -41 23 -55 28 -66 55 -128 68 -157 8 -17 14 -36 14 -42 0
-6 4 -19 9 -29 16 -34 41 -89 91 -207 31 -74 35 -83 70 -170 17 -44 36 -87 40
-97 5 -9 32 -76 60 -150 74 -192 47 -179 365 -176 l260 3 3 28 c2 16 -4 39
-12 52 -9 14 -25 48 -36 77 -26 66 -48 118 -60 140 -6 10 -10 25 -10 34 0 9
-6 28 -13 42 -8 15 -21 42 -30 60 -9 19 -17 40 -17 47 0 7 -7 27 -15 44 -8 17
-22 45 -30 62 -8 17 -15 39 -15 49 0 9 -7 23 -15 30 -8 7 -15 25 -15 40 0 15
-7 33 -15 40 -8 7 -15 23 -15 35 0 12 -7 28 -15 35 -8 7 -15 22 -15 34 0 11
-7 30 -15 40 -8 11 -15 30 -15 42 0 12 -7 27 -15 34 -8 7 -15 21 -15 30 0 10
-6 31 -14 47 -18 36 -39 86 -61 143 -17 44 -26 67 -58 140 -8 19 -23 55 -32
80 -31 80 -46 114 -61 142 -7 14 -14 33 -14 42 0 9 -4 24 -10 34 -5 9 -19 40
-30 67 -12 28 -25 59 -30 70 -4 11 -18 45 -30 75 -11 30 -25 64 -30 75 -5 11
-19 45 -30 75 -11 30 -24 64 -29 75 -5 11 -16 40 -26 65 -10 25 -21 54 -26 65
-5 11 -29 74 -54 140 -71 186 -77 199 -85 215 -4 9 -11 30 -15 49 -4 18 -12
34 -18 36 -15 5 -567 11 -590 7z m486 -121 c21 -8 37 -31 72 -106 25 -52 45
-99 45 -104 0 -5 8 -24 17 -43 29 -59 33 -68 33 -79 0 -6 11 -37 24 -68 24
-55 90 -216 146 -356 15 -38 44 -108 63 -155 96 -235 127 -313 127 -322 0 -5
11 -33 24 -61 28 -62 60 -138 111 -267 21 -52 55 -135 75 -185 38 -89 58 -141
120 -305 18 -47 47 -123 65 -170 46 -119 51 -147 29 -171 -15 -16 -31 -19
-123 -19 -144 0 -158 9 -218 138 -25 53 -60 133 -78 177 -52 126 -64 155 -100
235 -18 41 -61 143 -95 225 -85 204 -147 350 -175 410 -13 28 -29 68 -35 90
-7 22 -16 45 -20 50 -12 17 -131 302 -235 565 -21 52 -53 131 -71 175 -18 44
-54 131 -79 193 -52 126 -53 157 -7 166 46 8 255 -2 285 -13z"/>
<path d="M3885 5572 c-295 -2 -295 -2 -295 -50 0 -12 -4 -30 -9 -40 -19 -35
-41 -85 -41 -95 0 -5 -6 -23 -14 -40 -8 -18 -60 -149 -116 -292 -108 -277
-125 -320 -140 -347 -6 -10 -10 -23 -10 -28 0 -12 -33 -91 -55 -132 -24 -43
-21 -60 35 -183 5 -11 25 -60 45 -110 20 -49 40 -99 45 -110 24 -54 80 -206
95 -257 13 -46 21 -59 40 -64 30 -7 45 2 45 26 0 10 5 22 10 25 6 3 10 13 10
22 0 8 7 31 16 51 8 21 22 53 31 72 8 19 21 48 29 63 8 16 14 37 14 47 0 9 7
23 15 30 8 7 15 19 15 27 0 8 6 27 13 41 8 15 21 42 30 60 9 19 17 41 17 50 0
9 7 26 15 36 8 11 15 27 15 37 0 9 7 22 15 29 8 7 15 23 15 35 0 12 7 28 15
35 8 7 15 23 15 35 0 12 7 28 15 35 8 7 15 21 15 30 0 10 6 31 14 47 8 15 21
45 30 66 9 20 23 54 32 75 9 20 22 50 30 65 8 16 14 35 14 42 0 7 6 26 14 42
8 15 21 44 29 63 9 19 23 51 31 72 9 20 16 39 16 42 0 3 11 29 24 58 13 29 30
69 37 88 7 19 25 62 39 95 15 33 31 71 35 85 4 14 16 36 26 49 22 28 25 71 5
71 -8 0 -20 1 -28 3 -7 1 -139 1 -293 -1z m138 -119 c21 -12 1 -90 -53 -213
-16 -36 -40 -94 -54 -130 -13 -36 -37 -92 -52 -125 -14 -33 -30 -71 -34 -85
-5 -14 -29 -74 -55 -135 -26 -60 -50 -121 -55 -135 -4 -14 -19 -50 -33 -80
-13 -30 -41 -95 -62 -145 -137 -329 -140 -332 -204 -204 -23 45 -41 87 -41 94
0 7 -11 38 -25 69 -42 94 -50 141 -32 184 8 20 27 71 42 112 14 41 44 116 64
165 40 94 58 138 162 395 74 185 99 227 137 236 15 3 32 7 37 10 13 4 247 -7
258 -13z"/>
<path d="M41 793 c-41 -4 -43 -5 -36 -31 3 -15 10 -52 14 -82 4 -30 13 -68 19
-83 7 -16 12 -43 12 -61 0 -19 7 -50 15 -69 8 -20 15 -52 15 -70 0 -19 7 -51
15 -70 8 -20 15 -49 15 -65 0 -16 7 -46 15 -65 8 -20 15 -49 15 -64 0 -15 8
-50 18 -78 l18 -50 50 3 c61 5 75 17 85 79 4 26 18 91 29 143 21 90 63 288 80
375 4 22 17 71 28 110 11 38 18 73 16 77 -7 11 -106 10 -122 -1 -9 -5 -18 -42
-23 -92 -5 -46 -13 -104 -19 -129 -16 -77 -33 -202 -39 -284 -3 -44 -10 -81
-16 -82 -24 -8 -44 46 -55 147 -16 165 -28 251 -39 289 -6 19 -11 58 -11 85 0
53 -13 76 -39 73 -9 -1 -36 -3 -60 -5z"/>
<path d="M552 790 c-4 -3 -5 -178 -2 -390 l5 -385 121 4 c80 2 129 -1 143 -9
33 -17 51 3 51 56 l0 43 -107 3 -108 3 0 115 0 115 87 0 c50 0 91 5 98 11 6 6
10 29 8 50 l-3 39 -87 0 c-47 0 -90 4 -94 8 -13 13 -11 217 2 228 7 6 45 6 98
1 47 -4 92 -5 99 0 6 4 12 24 13 45 2 72 10 68 -162 68 -86 0 -159 -2 -162 -5z"/>
<path d="M1070 783 c-44 -29 -90 -76 -90 -93 0 -9 -7 -25 -15 -36 -12 -15 -14
-63 -15 -255 0 -213 2 -241 19 -280 24 -53 65 -94 106 -104 59 -14 127 -17
138 -6 6 6 20 11 32 11 46 1 115 96 115 159 0 32 -12 39 -69 37 -35 -1 -37 -3
-64 -68 -18 -40 -43 -53 -90 -44 -26 5 -35 14 -49 49 -15 35 -18 75 -18 244 0
172 3 208 18 240 21 48 29 53 73 53 41 0 53 -11 72 -66 12 -35 18 -40 53 -44
56 -8 74 -2 74 26 0 27 -43 119 -67 142 -50 50 -171 69 -223 35z"/>
<path d="M1403 784 c-3 -9 0 -63 6 -103 1 -2 24 -1 52 2 56 7 94 -6 85 -29 -7
-18 -9 -634 -2 -641 8 -8 81 -8 94 1 9 5 12 92 12 336 0 274 2 329 14 333 8 3
39 3 70 0 l56 -6 0 59 0 59 -191 0 c-133 0 -193 -3 -196 -11z"/>
<path d="M1952 780 c-41 -22 -72 -50 -72 -63 0 -6 -6 -18 -13 -26 -48 -57 -48
-547 -1 -602 8 -8 14 -19 14 -23 0 -16 46 -45 72 -46 15 0 30 -4 33 -10 8 -13
102 -13 110 0 3 6 19 10 35 10 21 0 38 11 63 41 30 34 37 52 47 122 15 99 8
432 -10 491 -31 101 -181 158 -278 106z m145 -110 c28 -32 42 -125 42 -275 0
-150 -14 -243 -42 -275 -23 -27 -80 -27 -105 0 -21 23 -42 160 -42 276 0 97
21 245 38 272 19 30 84 31 109 2z"/>
<path d="M2362 790 c-4 -3 -6 -179 -4 -392 l3 -388 54 0 c30 0 56 3 58 8 2 4
1 70 -2 147 -4 77 -3 148 1 158 11 22 60 22 80 0 8 -10 25 -56 37 -103 13 -47
29 -102 37 -123 8 -20 14 -46 14 -57 0 -21 10 -24 93 -35 41 -5 47 -4 47 12 0
10 -7 27 -15 37 -8 11 -15 29 -15 40 0 12 -7 30 -15 40 -8 11 -15 31 -15 45 0
14 -7 35 -15 45 -8 11 -15 30 -15 42 0 12 -7 27 -15 34 -25 20 -17 43 30 93
l45 48 0 110 c0 153 -27 204 -120 227 -47 12 -256 21 -268 12z m251 -128 c16
-17 22 -37 25 -89 7 -103 -29 -153 -111 -153 -18 0 -38 5 -45 12 -17 17 -17
244 1 252 28 12 109 -1 130 -22z"/>
<path d="M2810 776 c0 -13 7 -37 15 -52 8 -16 15 -45 15 -65 0 -20 7 -53 15
-72 8 -20 15 -57 15 -82 0 -26 5 -55 10 -66 6 -10 15 -47 20 -82 9 -62 19
-115 45 -237 8 -36 16 -76 19 -90 5 -24 8 -25 63 -22 32 2 62 8 68 13 5 5 10
28 12 52 1 23 7 58 12 77 14 51 38 200 52 318 11 96 25 132 47 118 5 -3 12
-25 15 -48 12 -88 37 -236 53 -313 9 -44 19 -106 23 -137 4 -32 12 -63 17 -68
6 -6 35 -10 64 -8 62 3 59 -1 86 148 9 47 22 119 30 160 8 41 18 104 24 140 5
36 14 78 19 94 6 15 11 42 11 60 0 18 9 60 21 94 28 82 23 92 -43 92 -29 0
-59 -4 -65 -8 -8 -5 -17 -52 -23 -123 -5 -63 -15 -169 -21 -237 -14 -167 -21
-203 -42 -216 -25 -15 -37 7 -37 68 0 49 -10 120 -35 251 -8 39 -19 111 -26
160 -7 50 -17 93 -22 96 -13 9 -114 5 -123 -4 -8 -8 -12 -32 -33 -190 -5 -42
-14 -83 -18 -90 -4 -6 -10 -39 -14 -72 -6 -61 -28 -198 -36 -224 -3 -11 -6
-12 -16 -2 -12 12 -21 75 -35 257 -5 61 -12 117 -17 123 -4 7 -10 56 -14 109
l-6 97 -72 2 c-71 3 -73 2 -73 -21z"/>
<path d="M3760 776 c-99 -66 -110 -105 -110 -391 0 -190 3 -230 17 -262 26
-57 72 -103 104 -103 15 0 31 -4 34 -10 8 -13 102 -13 110 0 3 6 17 10 31 10
35 0 86 57 104 116 19 65 20 459 0 519 -30 94 -101 145 -199 144 -41 0 -65 -6
-91 -23z m167 -136 c20 -42 22 -60 22 -242 1 -253 -13 -298 -96 -298 -35 0
-43 7 -65 47 -16 27 -18 60 -18 247 0 200 1 218 21 256 21 40 23 41 68 38 43
-3 47 -5 68 -48z"/>
<path d="M4184 793 c-11 -4 -6 -764 6 -778 10 -12 71 -12 90 0 10 6 12 40 7
154 -3 81 -2 152 2 159 5 8 22 12 42 10 39 -4 49 -20 74 -118 9 -36 21 -73 26
-82 5 -10 9 -28 9 -40 0 -41 36 -88 67 -88 16 0 38 -3 51 -6 19 -6 22 -3 22
24 0 17 -6 43 -14 59 -8 15 -22 53 -31 83 -9 30 -23 69 -31 86 -7 16 -16 49
-20 72 -5 34 -4 42 9 42 50 0 88 148 67 268 -10 63 -16 75 -50 106 -30 27 -49
35 -92 40 -69 7 -222 13 -234 9z m219 -115 c39 -20 46 -40 46 -123 0 -83 -7
-103 -46 -123 -29 -16 -98 -15 -110 1 -12 14 -11 226 0 245 10 15 81 16 110 0z"/>
<path d="M4694 789 c-10 -16 -4 -762 6 -774 5 -6 30 -9 62 -5 l53 5 0 106 c0
79 4 114 17 140 9 19 20 43 23 54 6 19 8 18 31 -8 13 -15 24 -40 24 -55 0 -15
7 -36 15 -46 8 -11 15 -28 15 -37 0 -10 6 -30 14 -46 7 -15 23 -48 35 -73 l21
-45 55 -1 c67 -1 67 2 24 106 -17 41 -38 92 -45 113 -22 60 -46 118 -71 175
-13 29 -23 56 -23 60 0 11 114 239 144 287 13 22 22 43 20 47 -14 22 -144 0
-144 -25 0 -5 -7 -25 -16 -45 -8 -21 -21 -50 -28 -67 -7 -16 -20 -46 -29 -65
-39 -88 -47 -109 -47 -128 0 -17 -37 -52 -56 -52 -3 0 -3 19 0 43 11 80 27
319 22 333 -7 17 -111 20 -122 3z"/>
<path d="M5306 791 c-3 -5 -17 -12 -31 -15 -32 -8 -59 -35 -85 -83 -15 -29
-20 -57 -20 -122 0 -127 20 -152 170 -211 81 -32 110 -70 110 -142 0 -90 -42
-130 -120 -113 -36 8 -43 18 -50 70 l-5 40 -59 3 -59 3 7 -58 c10 -85 49 -136
114 -147 93 -17 114 -18 125 -7 6 6 28 11 48 11 88 0 138 135 105 283 -22 97
-22 97 -186 163 -74 29 -90 49 -90 112 0 74 27 112 79 112 45 0 71 -24 71 -66
0 -42 17 -54 77 -54 50 0 53 1 53 26 0 84 -46 159 -114 188 -41 17 -131 22
-140 7z"/>
<path d="M5622 773 c-15 -16 -22 -34 -20 -51 5 -39 26 -39 30 0 4 40 22 44 26
5 2 -19 -3 -33 -14 -41 -9 -7 -14 -18 -10 -24 9 -15 36 -16 36 -2 0 6 8 5 21
-2 17 -11 22 -10 33 5 7 9 18 17 25 17 6 0 11 18 11 45 0 38 -3 45 -20 45 -11
0 -20 7 -20 15 0 26 -71 17 -98 -12z"/>
</g>
</svg>
